<?xml version="1.0" standalone="no"?>
<!DOCTYPE svg PUBLIC "-//W3C//DTD SVG 20010904//EN"
 "http://www.w3.org/TR/2001/REC-SVG-20010904/DTD/svg10.dtd">
<svg version="1.0" xmlns="http://www.w3.org/2000/svg"
 width="512.000000pt" height="512.000000pt" viewBox="0 0 512.000000 512.000000"
 preserveAspectRatio="xMidYMid meet">

<g transform="translate(0.000000,512.000000) scale(0.100000,-0.100000)"
fill="#000000" stroke="none">
<path d="M4320 4337 c-25 -7 -99 -43 -165 -80 l-121 -67 -1301 0 -1302 0 -20
-26 c-26 -33 -27 -65 -2 -95 l19 -24 1169 -5 1168 -5 -102 -57 -101 -58 -1431
0 -1431 0 0 60 0 60 220 0 221 0 24 25 c31 30 33 77 5 105 -19 19 -33 20 -299
20 l-280 0 -21 -27 c-20 -26 -21 -36 -18 -191 4 -208 -1 -202 164 -202 l114 0
0 -59 0 -59 -152 -4 c-131 -3 -160 -6 -201 -25 l-47 -22 0 220 c0 235 -5 266
-53 317 -39 42 -71 52 -163 52 -109 0 -160 -25 -193 -93 -21 -43 -21 -51 -21
-911 l0 -867 25 -24 c23 -24 28 -25 179 -25 146 0 206 9 206 31 0 5 15 0 32
-11 28 -17 51 -20 141 -20 l107 0 0 -400 0 -400 -35 0 c-46 0 -80 -17 -94 -47
-17 -37 -14 -52 18 -84 l29 -29 -19 -36 c-103 -203 21 -446 252 -495 143 -31
308 52 378 189 44 87 44 217 0 304 -10 20 -19 40 -19 43 0 3 54 5 120 5 107 0
122 2 140 20 30 30 27 83 -6 109 -24 19 -40 21 -180 21 l-154 0 0 60 0 60
1440 0 1440 0 0 -60 0 -60 -1125 0 c-814 0 -1131 -3 -1149 -11 -51 -23 -55
-103 -7 -128 13 -8 361 -11 1110 -11 600 0 1091 -2 1091 -5 0 -3 -9 -23 -19
-43 -11 -21 -24 -62 -29 -92 -45 -244 186 -457 428 -396 189 48 303 233 256
417 -9 35 -23 74 -31 86 -14 20 -12 24 15 52 33 32 36 47 19 84 -14 30 -48 47
-94 47 l-35 0 0 400 0 400 108 0 c86 0 113 4 137 18 29 18 31 18 49 0 17 -16
38 -18 183 -18 161 0 164 0 188 25 l25 24 0 867 c0 860 0 868 -21 911 -33 68
-84 93 -193 93 -91 0 -114 -7 -157 -47 l-26 -24 -37 60 c-20 33 -51 72 -69 87
-78 66 -206 97 -297 71z m182 -179 c18 -14 60 -72 95 -132 l62 -106 -474 -270
-473 -270 -236 0 -235 0 -11 43 c-6 23 -16 57 -22 75 -5 18 -8 35 -6 38 5 4
1028 587 1103 628 66 36 146 33 197 -6z m-4227 -140 c3 -13 4 -376 3 -808 l-3
-785 -62 -3 -63 -3 0 804 c0 442 3 807 7 810 3 4 30 7 59 7 47 0 54 -3 59 -22z
m4693 -791 l2 -808 -62 3 -63 3 -3 785 c-1 432 0 795 3 808 5 21 10 23 63 20
l57 -3 3 -808z m-3588 483 l0 -60 -200 0 -200 0 0 60 0 60 200 0 200 0 0 -60z
m550 0 l0 -60 -200 0 -200 0 0 60 0 60 200 0 200 0 0 -60z m550 0 l0 -60 -200
0 -200 0 0 60 0 60 200 0 200 0 0 -60z m560 0 l0 -60 -200 0 -200 0 0 60 0 60
200 0 200 0 0 -60z m240 49 c-8 -5 -32 -19 -52 -30 l-38 -19 0 30 c0 30 1 30
53 30 38 0 48 -3 37 -11z m1410 -329 l0 -330 -335 0 -335 0 0 103 c0 69 -5
111 -15 130 l-14 27 62 36 c34 19 190 109 347 199 157 89 286 163 288 164 1 1
2 -147 2 -329z m-3040 5 l0 -55 -605 0 -606 0 16 29 c14 28 53 62 85 74 8 3
261 6 563 6 l547 1 0 -55z m1412 3 l15 -53 -123 -5 c-101 -4 -126 -8 -143 -24
-22 -20 -28 -65 -11 -96 20 -37 58 -40 566 -40 l494 0 0 -60 0 -60 -1715 0
-1715 0 0 60 0 60 1056 2 1056 3 24 28 c31 36 31 71 -1 102 l-24 25 -366 0
-365 0 0 55 0 55 619 0 618 0 15 -52z m1628 -548 l0 -60 -2130 0 -2130 0 0 60
0 60 2130 0 2130 0 0 -60z m0 -292 l0 -82 -47 -48 -47 -48 -2035 0 -2035 0
-48 47 -48 47 0 83 0 83 2130 0 2130 0 0 -82z m-3720 -728 l0 -400 -65 0 -65
0 0 400 0 400 65 0 65 0 0 -400z m3030 135 l0 -265 -1440 0 -1440 0 0 265 0
265 1440 0 1440 0 0 -265z m280 -135 l0 -400 -65 0 -65 0 0 400 0 400 65 0 65
0 0 -400z"/>
</g>
</svg>
