<?xml version="1.0" standalone="no"?>
<!DOCTYPE svg PUBLIC "-//W3C//DTD SVG 20010904//EN"
 "http://www.w3.org/TR/2001/REC-SVG-20010904/DTD/svg10.dtd">
<svg version="1.0" xmlns="http://www.w3.org/2000/svg"
 width="512.000000pt" height="512.000000pt" viewBox="0 0 512.000000 512.000000"
 preserveAspectRatio="xMidYMid meet">

<g transform="translate(0.000000,512.000000) scale(0.100000,-0.100000)"
fill="#000000" stroke="none">
<path d="M2336 5105 c-83 -29 -140 -96 -156 -184 -6 -32 -10 -267 -10 -572 l0
-519 -100 0 -100 0 0 379 c0 428 -1 436 -72 508 -65 66 -151 88 -242 61 -55
-16 -138 -99 -154 -154 -8 -29 -12 -151 -12 -417 l0 -376 -377 -3 c-366 -3
-379 -4 -419 -25 -48 -26 -107 -88 -131 -140 -16 -34 -18 -82 -21 -450 l-3
-411 -103 -4 c-92 -3 -107 -6 -144 -30 -22 -15 -54 -49 -69 -75 l-28 -48 0
-230 0 -230 28 -48 c15 -26 47 -60 69 -75 l41 -27 324 -3 323 -3 0 -268 c0
-256 1 -269 21 -295 l20 -26 709 0 709 0 20 26 c20 26 21 39 21 296 l0 269
143 -3 142 -3 0 -365 c0 -335 -1 -367 -18 -391 -37 -56 -5 -54 -1022 -54 -882
0 -943 1 -968 18 -59 39 -62 49 -67 315 -5 226 -6 245 -24 258 -29 21 -80 18
-102 -7 -18 -20 -19 -39 -19 -273 0 -234 1 -254 21 -296 31 -67 68 -106 131
-136 48 -24 71 -28 170 -32 l113 -5 0 -79 c0 -70 3 -82 25 -103 31 -32 69 -32
100 0 22 22 25 32 25 105 l0 80 180 0 180 0 0 -505 0 -506 25 -24 c31 -32 69
-32 100 0 l25 24 0 506 0 505 90 0 90 0 0 -505 0 -506 25 -24 c31 -32 69 -32
100 0 l25 24 0 506 0 505 180 0 180 0 0 -80 c0 -73 3 -83 25 -105 31 -32 69
-32 100 0 22 21 25 33 25 103 l0 79 114 5 c103 4 121 7 172 34 36 18 71 46 91
72 67 88 64 27 61 1303 -3 1287 3 1184 -74 1269 -71 78 -92 84 -319 90 l-200
5 -3 516 c-2 557 0 582 48 606 33 17 1510 19 1542 2 41 -22 48 -65 48 -293 l0
-214 -301 -184 c-334 -203 -391 -249 -453 -367 -68 -130 -66 -95 -66 -1013 0
-914 -3 -867 63 -937 61 -65 88 -71 315 -71 l202 0 0 -899 c0 -598 3 -909 10
-927 20 -52 74 -70 115 -38 20 15 20 30 25 937 l5 922 170 0 170 0 5 -233 c5
-217 6 -235 24 -248 23 -16 59 -18 86 -4 33 18 40 66 40 281 l0 209 188 0
c183 0 189 1 241 26 64 32 106 86 121 157 8 37 10 287 8 862 -4 904 1 847 -76
985 -56 102 -126 163 -324 283 -97 59 -185 107 -196 107 -11 0 -31 -9 -46 -21
-30 -24 -36 -78 -11 -103 8 -8 88 -59 177 -113 182 -111 234 -156 278 -246 40
-82 51 -160 48 -332 l-3 -140 -327 -5 c-297 -5 -329 -7 -345 -23 -16 -16 -18
-43 -18 -317 0 -298 0 -300 23 -322 22 -23 24 -23 348 -26 l325 -3 -3 -284 -3
-283 -24 -26 -24 -26 -694 0 -694 0 -25 25 -24 25 2 832 3 833 34 67 c20 41
54 86 85 115 29 27 187 130 363 237 262 159 314 195 323 219 6 18 10 131 10
272 0 271 -8 319 -63 382 -17 20 -54 47 -82 59 l-50 24 -770 -1 c-635 0 -777
-2 -809 -14z m-571 -477 c54 -24 55 -36 55 -433 l0 -365 -90 0 -90 0 0 368 c1
392 2 401 51 428 30 17 42 17 74 2z m943 -968 c63 -38 62 -33 62 -635 l0 -545
-1040 0 -1040 0 1 543 c0 392 3 552 12 577 7 19 27 44 46 57 l34 23 946 0
c931 0 947 0 979 -20z m2070 -662 l-3 -193 -267 -3 -268 -2 0 195 0 195 270 0
270 0 -2 -192z m-4238 -583 l0 -235 -73 0 c-120 0 -117 -7 -117 232 0 245 -3
238 112 238 l78 0 0 -235z m2228 -162 l3 -73 -1041 0 -1040 0 0 68 c0 38 3 72
7 75 3 4 470 6 1037 5 l1031 -3 3 -72z m-448 -448 l0 -215 -595 0 -595 0 0
215 0 215 595 0 595 0 0 -215z"/>
<path d="M1276 3519 c-34 -27 -36 -79 -4 -109 20 -18 35 -20 163 -20 128 0
143 2 163 20 32 30 30 82 -4 109 -24 19 -40 21 -159 21 -119 0 -135 -2 -159
-21z"/>
<path d="M1795 3515 c-14 -13 -25 -36 -25 -50 0 -33 42 -75 75 -75 33 0 75 42
75 75 0 33 -42 75 -75 75 -14 0 -37 -11 -50 -25z"/>
<path d="M2105 3528 c-28 -16 -35 -28 -35 -65 0 -80 104 -103 135 -30 16 39 3
80 -31 96 -31 14 -43 14 -69 -1z"/>
<path d="M839 3261 l-24 -19 -3 -279 c-2 -153 0 -288 3 -301 3 -12 14 -31 25
-42 20 -20 37 -20 889 -20 840 0 870 1 892 19 l24 19 0 302 0 302 -24 19 c-22
18 -51 19 -891 19 -839 0 -869 -1 -891 -19z m1651 -321 l0 -190 -760 0 -760 0
0 190 0 190 760 0 760 0 0 -190z"/>
</g>
</svg>
