<?xml version="1.0" standalone="no"?>
<!DOCTYPE svg PUBLIC "-//W3C//DTD SVG 20010904//EN"
 "http://www.w3.org/TR/2001/REC-SVG-20010904/DTD/svg10.dtd">
<svg version="1.0" xmlns="http://www.w3.org/2000/svg"
 width="512.000000pt" height="512.000000pt" viewBox="0 0 512.000000 512.000000"
 preserveAspectRatio="xMidYMid meet">

<g transform="translate(0.000000,512.000000) scale(0.100000,-0.100000)"
fill="#000000" stroke="none">
<path d="M297 4694 c-51 -26 -99 -84 -118 -141 -15 -45 -7 -139 16 -184 9 -19
265 -283 568 -586 l552 -553 -586 0 -586 0 -33 -22 c-71 -49 -75 -61 -78 -246
-2 -158 -1 -169 20 -206 14 -24 40 -48 67 -63 l44 -23 576 0 576 -1 483 -427
c266 -235 482 -431 480 -437 -1 -5 -195 -181 -431 -389 l-429 -379 -97 -1
c-80 -1 -104 -5 -145 -25 -200 -99 -244 -361 -86 -518 60 -61 120 -87 210 -91
100 -5 173 22 243 89 l51 49 947 0 948 0 50 -49 c70 -68 141 -94 241 -89 90 5
151 31 211 92 125 124 126 329 2 453 -60 60 -124 87 -217 91 l-80 4 -340 301
c-188 166 -382 338 -432 383 l-92 82 487 431 486 430 574 1 c563 0 576 0 618
21 29 14 52 35 69 64 25 43 25 47 22 209 -3 182 -8 196 -78 244 -31 20 -44 22
-186 22 -85 0 -154 2 -154 4 0 2 9 25 21 51 47 106 5 237 -95 300 l-49 30
-522 3 -522 3 -6 59 c-10 115 -89 211 -201 245 -77 23 -1404 22 -1472 -1 -108
-36 -176 -110 -197 -212 -6 -31 -12 -58 -13 -60 -9 -14 -112 83 -559 529 -351
349 -522 513 -547 524 -58 24 -154 19 -211 -11z m176 -85 c12 -6 252 -240 532
-519 425 -423 519 -512 563 -531 l52 -24 0 -147 0 -148 -83 0 -82 0 -587 588
c-513 513 -587 592 -593 624 -12 63 18 122 80 156 26 15 90 15 118 1z m2828
-797 c61 -32 99 -91 99 -154 l0 -38 -840 0 -840 0 0 38 c0 63 38 122 99 154
l53 28 688 0 688 0 53 -28z m99 -432 l0 -140 -840 0 -840 0 0 140 0 140 840 0
840 0 0 -140z m1138 120 c91 -56 95 -186 7 -240 -31 -19 -48 -20 -539 -20
l-506 0 0 140 0 140 503 0 c483 0 503 -1 535 -20z m-2918 -433 c0 -52 4 -67
20 -82 16 -15 26 -17 48 -9 26 9 27 13 30 82 l3 72 834 0 835 0 0 -58 c0 -65
19 -102 52 -102 41 0 58 28 58 97 l0 63 725 0 724 0 21 -22 c18 -20 20 -35 20
-154 0 -115 -2 -135 -19 -155 l-19 -24 -2385 -3 -2384 -2 -27 21 c-26 20 -26
21 -26 160 0 126 2 141 20 159 20 20 33 20 745 20 l725 0 0 -63z m435 -709
c193 -170 368 -326 389 -344 l40 -34 -55 -50 c-30 -27 -57 -49 -61 -50 -5 0
-793 690 -892 781 -6 5 40 9 110 9 l119 -1 350 -311z m1205 309 c0 -7 -692
-612 -700 -612 -4 0 -151 126 -326 280 -174 154 -331 292 -348 307 l-31 27
703 1 c386 0 702 -1 702 -3z m364 -25 c-17 -15 -467 -412 -999 -882 -1089
-963 -1005 -899 -1077 -817 l-37 43 952 841 952 842 120 0 120 0 -31 -27z
m-429 -1292 c215 -189 391 -344 393 -346 9 -7 -105 -104 -119 -102 -9 2 -200
167 -424 368 l-407 365 58 52 59 52 25 -23 c14 -12 201 -177 415 -366z m-254
-122 l360 -323 -370 -3 c-203 -1 -539 -1 -746 0 l-376 3 372 328 c222 196 377
326 385 323 8 -3 176 -151 375 -328z m501 -508 l-4 -80 -901 0 -902 0 0 80 0
80 905 0 905 0 -3 -80z"/>
</g>
</svg>
