<?xml version="1.0" standalone="no"?>
<!DOCTYPE svg PUBLIC "-//W3C//DTD SVG 20010904//EN"
 "http://www.w3.org/TR/2001/REC-SVG-20010904/DTD/svg10.dtd">
<svg version="1.0" xmlns="http://www.w3.org/2000/svg"
 width="512.000000pt" height="512.000000pt" viewBox="0 0 512.000000 512.000000"
 preserveAspectRatio="xMidYMid meet">

<g transform="translate(0.000000,512.000000) scale(0.100000,-0.100000)"
fill="#000000" stroke="none">
<path d="M1849 5106 c-87 -31 -148 -91 -169 -167 -13 -45 -13 -131 1 -166 24
-65 97 -113 172 -113 25 0 27 -3 27 -39 0 -38 -1 -39 -60 -60 -129 -47 -239
-162 -284 -296 l-23 -70 -234 -5 c-259 -6 -281 -10 -367 -73 -56 -42 -94 -92
-125 -168 l-22 -54 -5 -1430 -5 -1430 -22 -30 c-105 -147 -294 -138 -374 17
-18 36 -19 80 -19 1461 l0 1424 38 24 c40 26 92 114 92 157 0 23 5 20 59 -31
33 -32 66 -57 75 -57 49 0 93 51 80 94 -3 11 -52 68 -109 126 l-103 105 -4 92
c-4 78 -8 97 -31 131 -62 95 -190 124 -285 65 -33 -20 -54 -44 -74 -82 l-28
-53 0 -207 c0 -203 1 -208 26 -259 17 -35 41 -63 70 -83 l44 -30 2 -1442 3
-1442 26 -55 c44 -93 128 -164 229 -194 169 -50 353 33 429 194 l26 55 5 1430
c5 1569 1 1461 64 1528 56 60 89 67 327 67 l216 0 7 -37 c3 -21 19 -64 35 -95
l29 -57 -39 -26 c-54 -38 -131 -122 -178 -194 -62 -96 -83 -167 -88 -305 -5
-113 -7 -121 -37 -163 -27 -39 -31 -53 -31 -108 0 -56 4 -67 33 -103 l32 -41
0 -140 c0 -139 0 -140 26 -160 43 -34 86 -24 112 26 7 13 12 67 12 132 l0 111
720 0 720 0 0 -726 c0 -475 4 -732 10 -744 17 -33 47 -43 86 -30 19 6 39 20
44 30 6 12 10 291 10 766 l0 746 29 34 c41 46 49 107 24 165 -11 24 -27 50
-36 58 -14 11 -17 32 -17 106 0 234 -95 407 -310 566 -45 34 -108 66 -195 100
l-70 27 3 38 c1 22 5 49 7 62 l5 22 695 0 695 0 0 -59 0 -59 -67 -23 c-164
-53 -298 -147 -404 -282 -86 -108 -129 -239 -129 -390 0 -80 -2 -92 -25 -119
-54 -64 -53 -168 1 -219 l24 -22 0 -1030 0 -1029 -25 -30 c-53 -63 -55 -148
-4 -218 29 -40 29 -40 29 -190 0 -172 7 -197 67 -251 77 -70 226 -121 453
-156 160 -24 539 -24 700 0 241 36 422 103 483 179 38 47 46 92 47 259 0 115
3 139 17 150 55 46 55 182 0 228 -15 12 -17 58 -17 485 0 484 -4 537 -40 556
-31 17 -75 12 -96 -11 -18 -20 -19 -45 -22 -495 l-3 -474 -719 0 -720 0 0 990
0 990 720 0 719 0 3 -384 c3 -361 4 -385 22 -405 22 -24 72 -28 99 -7 10 8 22
29 27 47 6 19 10 200 10 412 l0 378 27 35 c19 25 28 51 31 90 4 48 1 61 -25
103 -27 43 -31 60 -38 157 -12 183 -62 301 -180 432 -83 92 -235 186 -367 228
l-58 18 0 58 0 58 94 0 c106 0 143 16 180 80 31 52 30 181 -2 232 -34 55 -90
78 -190 78 l-82 0 0 85 0 85 28 0 c54 0 100 20 136 60 43 48 50 72 44 158 -6
76 -23 117 -72 165 -69 70 -80 72 -387 75 -259 3 -279 2 -332 -18 -153 -57
-219 -271 -119 -384 24 -26 91 -56 130 -56 l32 0 0 -85 0 -85 -715 0 -715 0 0
85 0 85 30 0 c36 0 96 23 124 48 28 26 56 92 56 138 0 102 -57 201 -144 247
-39 21 -55 22 -321 24 -212 2 -289 0 -316 -11z m571 -154 c26 -12 39 -28 50
-60 27 -79 38 -77 -326 -77 l-319 0 -3 41 c-3 44 23 89 62 104 11 5 129 9 261
9 209 1 244 -1 275 -17z m2001 -20 c25 -28 30 -41 27 -75 l-3 -42 -319 0
c-364 0 -353 -2 -326 77 26 75 43 79 338 76 l254 -3 29 -33z m-2161 -347 l0
-74 -62 29 c-34 16 -86 34 -115 40 -52 11 -53 12 -53 46 l0 34 115 0 115 0 0
-75z m1980 -10 l0 -85 -115 0 -115 0 0 85 0 85 115 0 115 0 0 -85z m-3938
-102 c16 -14 18 -35 18 -201 0 -204 -5 -222 -61 -222 -52 0 -59 25 -59 220 0
143 3 180 16 198 18 26 60 29 86 5z m1764 -47 c148 -39 241 -170 232 -329 -4
-84 -29 -141 -90 -203 -58 -60 -119 -88 -205 -92 -124 -7 -222 41 -287 140
-160 248 66 560 350 484z m2469 -131 l0 -40 -1048 0 -1048 0 -19 43 -19 42
1067 -2 1067 -3 0 -40z m-295 -239 l0 -35 -115 -3 -115 -3 0 38 0 37 115 0
115 0 0 -34z m100 -217 c95 -24 224 -86 296 -141 68 -53 146 -154 174 -227 15
-37 24 -88 27 -148 l6 -93 -722 0 -721 0 0 63 c0 139 55 261 164 365 188 178
497 250 776 181z m-1754 -90 c120 -72 215 -182 254 -294 10 -30 22 -93 26
-140 l7 -85 -723 0 -722 0 4 93 c8 154 70 271 197 371 l61 47 38 -23 c103 -64
226 -90 334 -70 91 17 193 71 257 136 l54 54 78 -27 c42 -15 103 -43 135 -62z
m347 -683 c3 -8 3 -17 0 -20 -4 -3 -359 -6 -790 -6 -646 0 -783 2 -783 13 0 8
3 17 7 20 3 4 356 7 784 7 657 0 778 -2 782 -14z m1975 -8 c3 -17 -39 -18
-781 -18 -431 0 -786 3 -790 6 -3 3 -3 12 0 20 4 12 122 14 786 12 735 -3 782
-4 785 -20z m-1 -2324 c3 -9 0 -20 -8 -25 -8 -5 -354 -9 -780 -9 -624 0 -769
2 -778 13 -29 36 -6 37 786 37 700 0 774 -2 780 -16z m-67 -309 l0 -125 -37
-24 c-84 -55 -276 -99 -505 -117 -333 -25 -743 32 -870 122 l-28 20 0 125 0
124 720 0 720 0 0 -125z"/>
<path d="M1890 4337 c-13 -7 -31 -24 -39 -39 -14 -24 -12 -32 24 -123 54 -133
104 -167 160 -110 33 32 32 49 -11 152 -48 118 -80 147 -134 120z"/>
<path d="M1335 2412 c-11 -2 -28 -11 -37 -20 -17 -14 -18 -63 -18 -767 l0
-752 -30 -38 c-53 -66 -53 -151 0 -216 l30 -38 0 -162 c0 -145 2 -165 20 -194
57 -92 229 -161 500 -202 161 -24 540 -24 700 0 227 35 376 86 453 156 60 54
67 79 67 251 0 150 0 150 29 190 51 70 49 155 -4 218 -24 29 -25 36 -25 165 0
75 -3 143 -6 152 -7 18 -55 45 -79 45 -9 0 -27 -11 -40 -25 -24 -23 -25 -30
-25 -150 l0 -125 -720 0 -720 0 -2 734 c-3 693 -4 735 -21 754 -21 23 -43 30
-72 24z m1594 -1675 c29 -36 6 -37 -779 -37 -425 0 -771 4 -779 9 -8 5 -11 16
-8 25 6 14 80 16 780 16 631 0 777 -2 786 -13z m-59 -312 l0 -124 -45 -27
c-153 -89 -514 -139 -840 -115 -244 18 -460 68 -529 122 -25 20 -26 23 -26
145 l0 124 720 0 720 0 0 -125z"/>
<path d="M2354 2291 c-49 -22 -84 -64 -84 -101 0 -56 80 -91 121 -54 10 9 24
14 31 12 8 -3 -14 -33 -58 -79 -78 -81 -91 -106 -73 -141 23 -42 39 -47 155
-48 96 0 113 3 131 20 12 10 24 28 28 40 8 25 -14 72 -40 84 -20 9 -20 9 3 57
28 56 25 96 -11 150 -24 38 -97 79 -137 79 -14 0 -43 -9 -66 -19z"/>
<path d="M4336 2296 c-50 -19 -84 -53 -92 -93 -12 -63 68 -106 124 -67 12 8
27 14 34 12 6 -2 -24 -38 -66 -81 -65 -66 -76 -81 -76 -111 0 -25 7 -40 26
-55 23 -18 41 -21 136 -21 102 0 110 1 133 25 35 34 33 76 -5 109 l-30 25 20
33 c74 121 -66 275 -204 224z"/>
<path d="M1865 2196 c-58 -27 -94 -63 -127 -126 -22 -42 -23 -56 -23 -220 l0
-175 31 -55 c56 -99 143 -146 254 -138 97 7 182 67 224 157 19 41 21 64 21
211 0 147 -2 170 -21 211 -27 57 -84 115 -138 140 -60 27 -157 25 -221 -5z
m160 -140 c55 -23 65 -56 65 -208 0 -113 -3 -138 -19 -164 -38 -63 -134 -66
-181 -7 -18 23 -20 40 -20 173 0 135 2 150 21 174 36 46 77 55 134 32z"/>
<path d="M3866 2210 c-49 -15 -104 -60 -138 -113 l-33 -52 0 -195 c0 -185 1
-197 22 -231 56 -90 140 -139 239 -139 109 0 213 74 248 178 22 64 22 320 0
384 -36 106 -138 178 -249 177 -33 0 -73 -5 -89 -9z m161 -171 c34 -33 45 -90
41 -216 -4 -129 -17 -158 -84 -182 -35 -12 -44 -12 -76 3 -56 27 -68 63 -68
205 0 84 5 132 15 157 26 63 120 81 172 33z"/>
</g>
</svg>
