<?xml version="1.0" standalone="no"?>
<!DOCTYPE svg PUBLIC "-//W3C//DTD SVG 20010904//EN"
 "http://www.w3.org/TR/2001/REC-SVG-20010904/DTD/svg10.dtd">
<svg version="1.0" xmlns="http://www.w3.org/2000/svg"
 width="512.000000pt" height="512.000000pt" viewBox="0 0 512.000000 512.000000"
 preserveAspectRatio="xMidYMid meet">

<g transform="translate(0.000000,512.000000) scale(0.100000,-0.100000)"
fill="#000000" stroke="none">
<path d="M1265 4451 c-22 -10 -56 -35 -74 -55 l-35 -36 -200 0 c-174 0 -207
-3 -242 -19 -48 -22 -101 -82 -115 -131 -11 -41 -369 -2399 -369 -2435 0 -63
93 -88 131 -35 13 19 60 305 194 1195 97 644 180 1188 185 1210 14 63 22 65
222 65 l178 0 0 -70 0 -70 -111 0 c-176 0 -127 189 -379 -1472 l-214 -1418
-73 0 c-40 0 -73 3 -73 8 0 4 9 65 20 136 26 165 25 198 0 221 -27 24 -76 23
-102 -2 -16 -17 -25 -55 -46 -195 -26 -169 -27 -174 -56 -193 -58 -39 -67 -63
-89 -227 -20 -153 -20 -155 -1 -194 10 -21 35 -49 54 -62 34 -23 38 -23 271
-20 267 3 272 5 312 82 19 37 19 41 3 164 -25 186 -26 191 -51 220 l-22 27 63
415 c35 228 63 418 64 423 0 8 970 10 970 1 0 -37 -124 -810 -130 -812 -22 -8
-62 -47 -75 -73 -9 -16 -25 -95 -36 -175 l-20 -146 23 -46 c39 -78 56 -82 318
-82 207 0 228 2 258 20 42 26 72 76 72 120 -1 84 -39 288 -60 327 l-23 39 61
405 c34 223 62 410 62 417 0 9 87 12 373 12 l372 0 38 -251 38 -252 -34 -28
c-48 -40 -101 -123 -127 -200 -18 -53 -21 -81 -18 -164 3 -90 7 -107 40 -176
139 -294 519 -360 748 -130 183 182 181 475 -4 656 -34 33 -85 71 -114 84 -28
14 -52 28 -52 33 0 14 -149 1000 -155 1026 l-5 22 487 -2 487 -3 85 -557 84
-558 -55 -58 c-87 -91 -128 -191 -128 -312 0 -133 49 -248 142 -337 68 -63
127 -97 204 -117 333 -86 643 210 573 546 -26 125 -129 259 -244 319 l-50 25
-31 203 c-32 215 -35 223 -92 238 -29 7 -70 -20 -78 -52 -5 -21 26 -272 43
-343 5 -20 2 -22 -33 -22 -22 0 -54 -4 -72 -9 -24 -7 -34 -7 -37 2 -6 16 -155
1002 -155 1022 0 13 12 15 72 13 l72 -3 32 -205 c34 -222 37 -236 65 -250 54
-29 109 5 109 68 0 20 -67 476 -149 1013 -164 1080 -154 1033 -239 1094 l-44
30 -211 3 -212 3 -40 39 c-65 64 -91 70 -285 70 -94 0 -180 -4 -190 -10 -29
-16 -42 -67 -25 -100 8 -15 22 -30 30 -34 9 -3 88 -6 176 -6 207 0 199 7 199
-165 0 -180 34 -165 -369 -165 l-328 0 -7 53 c-18 137 -29 180 -61 228 l-34
49 98 0 c114 0 141 15 141 75 0 22 -8 41 -22 55 -20 19 -34 20 -217 20 -221 0
-247 -7 -310 -74 -34 -35 -37 -36 -110 -36 -74 0 -77 1 -103 34 -15 19 -47 43
-71 55 -42 21 -55 21 -533 21 -455 0 -492 -2 -529 -19z m1015 -158 c20 -26 21
-37 18 -151 -3 -109 -5 -125 -22 -138 -17 -12 -99 -14 -485 -14 -418 0 -466 2
-483 17 -16 14 -18 33 -18 149 0 126 1 134 22 148 20 14 82 16 484 16 l463 0
21 -27z m545 -103 c15 -16 33 -119 91 -498 40 -262 75 -494 78 -514 l6 -38
-75 0 c-41 0 -75 4 -75 8 0 35 -133 868 -140 883 -18 32 -45 39 -154 39 l-106
0 0 70 0 70 178 0 c167 0 180 -1 197 -20z m1425 0 c11 -11 20 -26 20 -32 0 -7
34 -235 75 -506 41 -271 75 -497 75 -503 0 -5 -33 -9 -73 -9 l-72 0 -67 443
c-81 531 -60 487 -229 487 l-109 0 0 70 0 70 180 0 c167 0 181 -1 200 -20z
m-3040 -300 c20 -16 49 -34 64 -40 17 -6 155 -10 357 -10 181 0 329 -4 329 -9
0 -13 -189 -1263 -195 -1288 l-5 -23 -485 0 -484 0 4 28 c11 59 205 1347 205
1359 0 10 22 13 86 13 80 0 89 -2 124 -30z m1375 8 c7 -34 205 -1347 205
-1364 0 -12 -46 -14 -285 -14 -265 0 -285 1 -285 18 0 20 199 1351 205 1370 3
8 28 12 79 12 70 0 76 -2 81 -22z m1420 10 c4 -14 115 -742 115 -758 0 -6
-177 -10 -485 -10 -267 0 -485 4 -485 8 0 4 -22 155 -50 335 -27 180 -50 334
-50 342 0 13 45 15 328 15 l328 0 51 25 c28 14 54 32 57 40 7 20 184 22 191 3z
m-1745 -75 c0 -12 -190 -1265 -195 -1290 -5 -21 -11 -23 -75 -23 -62 0 -70 2
-70 19 0 24 189 1271 195 1289 5 13 145 18 145 5z m824 -1250 c9 -44 135 -881
142 -945 l7 -58 -34 0 c-19 0 -50 -4 -68 -10 -19 -5 -36 -9 -37 -7 -1 1 -37
227 -78 502 -42 275 -78 510 -81 523 -5 21 -3 22 69 22 73 0 75 0 80 -27z
m-1104 -598 c0 -5 -104 -688 -116 -762 l-7 -43 -73 0 -73 0 4 28 c11 58 115
757 115 769 0 10 20 13 75 13 41 0 75 -2 75 -5z"/>
</g>
</svg>
