<?xml version="1.0" standalone="no"?>
<!DOCTYPE svg PUBLIC "-//W3C//DTD SVG 20010904//EN"
 "http://www.w3.org/TR/2001/REC-SVG-20010904/DTD/svg10.dtd">
<svg version="1.0" xmlns="http://www.w3.org/2000/svg"
 width="512.000000pt" height="512.000000pt" viewBox="0 0 512.000000 512.000000"
 preserveAspectRatio="xMidYMid meet">

<g transform="translate(0.000000,512.000000) scale(0.100000,-0.100000)"
fill="#000000" stroke="none">
<path d="M532 5100 c-14 -14 -22 -33 -22 -55 0 -22 8 -41 22 -55 21 -19 34
-20 240 -20 l218 0 0 -435 0 -436 25 -24 c31 -32 69 -32 100 0 l25 24 0 436 0
435 85 0 85 0 0 -935 0 -935 -85 0 -85 0 0 350 0 351 -25 24 c-29 30 -64 32
-96 6 l-24 -19 -5 -547 -5 -547 -75 -28 c-447 -163 -779 -549 -882 -1023 -30
-137 -32 -409 -4 -537 63 -293 184 -518 386 -720 204 -204 439 -329 726 -387
122 -24 385 -24 507 0 566 113 999 546 1108 1109 10 54 19 117 19 138 l0 40
330 0 330 0 0 -98 0 -97 -52 -13 c-93 -21 -192 -78 -263 -148 -219 -219 -218
-571 2 -789 255 -253 668 -206 865 99 112 174 113 418 0 591 -81 125 -203 214
-342 249 l-55 13 -3 97 -3 96 349 0 348 0 180 -322 c98 -178 187 -331 197
-340 15 -16 39 -18 221 -18 l205 0 20 26 c34 43 26 86 -20 109 -21 11 -66 15
-182 15 l-153 0 -183 327 c-101 181 -190 334 -199 341 -9 6 -42 12 -74 12
l-58 0 0 155 c0 133 -3 161 -19 193 -47 93 -77 101 -383 102 l-248 0 0 198 c0
218 -1 222 -62 237 -22 6 -33 1 -58 -23 l-30 -30 0 -411 0 -411 -327 2 -328 3
-7 69 c-30 302 -176 603 -403 827 -306 304 -705 441 -1147 396 l-78 -8 0 96 0
95 1144 0 1145 0 3 -179 c3 -159 5 -181 22 -200 25 -27 79 -28 106 -1 19 19
20 33 20 254 l0 235 -26 20 c-23 18 -41 21 -135 21 l-109 0 0 138 c0 186 3
182 -177 182 l-131 0 -4 103 c-3 92 -6 108 -30 144 -53 80 -40 78 -588 78
l-485 0 -5 380 c-5 361 -6 382 -26 426 -12 25 -38 63 -59 84 -59 58 -112 77
-237 83 l-108 5 0 139 c0 165 -10 195 -75 233 l-42 25 -394 0 c-384 0 -396 -1
-417 -20z m1163 -573 c26 -26 34 -44 40 -88 3 -29 5 -270 3 -534 l-3 -480
-132 -3 -133 -3 0 571 0 570 96 0 c95 0 96 0 129 -33z m1005 -1017 l0 -80
-405 0 -405 0 0 73 c0 41 3 77 7 80 3 4 186 7 405 7 l398 0 0 -80z m-970 -325
l0 -85 -130 0 -130 0 0 85 0 85 130 0 130 0 0 -85z m1430 0 l0 -85 -635 0
-635 0 0 85 0 85 635 0 635 0 0 -85z m-1570 -580 c224 -37 439 -140 615 -295
84 -74 106 -107 145 -225 35 -105 56 -208 65 -320 l6 -80 -29 71 c-66 163
-147 286 -259 396 -72 71 -110 82 -147 45 -47 -47 -37 -76 59 -178 47 -50 85
-96 85 -103 0 -6 -24 -25 -52 -42 -29 -17 -153 -88 -275 -158 l-222 -128 -28
22 c-15 12 -43 28 -60 35 l-33 14 0 315 c0 173 3 317 8 320 10 6 129 -16 213
-39 63 -18 68 -18 93 -2 48 32 47 106 -3 131 -50 26 -170 55 -277 67 -306 35
-633 -82 -856 -305 -371 -370 -422 -932 -125 -1371 52 -77 185 -210 262 -262
71 -48 183 -106 257 -134 l53 -19 -91 5 c-103 6 -258 41 -360 81 -195 76 -415
432 -464 749 -30 193 -7 434 60 616 153 419 538 734 976 798 97 14 283 12 384
-4z m-280 -630 c0 -264 -3 -325 -13 -325 -8 0 -35 -14 -60 -31 -45 -30 -48
-30 -72 -15 l-25 16 0 325 0 324 53 10 c28 5 61 12 72 14 11 3 26 5 33 6 9 1
12 -70 12 -324z m-324 -262 c-3 -3 -323 176 -345 194 -2 1 16 29 41 60 55 71
153 155 239 206 l64 37 3 -246 c1 -136 0 -249 -2 -251z m-196 -65 l195 -114 5
-91 c3 -51 10 -97 16 -103 6 -6 28 -17 48 -24 l37 -13 -262 -151 c-144 -83
-266 -149 -270 -146 -17 10 -69 196 -80 284 -17 143 8 315 66 454 13 30 18 35
33 27 9 -6 105 -61 212 -123z m1449 70 c21 -53 44 -140 56 -210 l6 -38 -308 0
-308 1 60 34 c33 19 148 86 255 149 107 63 200 115 206 115 7 1 21 -23 33 -51z
m1825 36 c14 -5 16 -28 16 -150 l0 -144 -245 0 -245 0 0 150 0 150 229 0 c126
0 236 -3 245 -6z m-1764 -452 c0 -48 -56 -254 -79 -290 -6 -10 -74 25 -272
139 -145 83 -266 153 -268 155 -2 2 136 4 307 4 172 0 312 -4 312 -8z m-1032
-161 l42 -21 0 -320 0 -320 -28 0 c-85 0 -292 75 -395 144 -108 72 -260 228
-240 247 4 4 129 77 278 163 230 132 272 153 285 142 8 -8 34 -23 58 -35z
m624 -131 l248 -142 -22 -31 c-75 -109 -254 -245 -390 -297 -79 -31 -199 -60
-244 -60 l-24 0 0 320 0 320 36 15 c19 8 47 24 61 35 25 20 26 20 57 1 17 -10
142 -83 278 -161z m1652 -374 c68 -28 66 -130 -4 -154 -102 -36 -165 111 -66
154 38 16 31 16 70 0z"/>
</g>
</svg>
